<?xml version="1.0" encoding="UTF-8" standalone="no"?>
<!-- Created with Inkscape (http://www.inkscape.org/) -->

<svg
   xmlns:dc="http://purl.org/dc/elements/1.1/"
   xmlns:cc="http://creativecommons.org/ns#"
   xmlns:rdf="http://www.w3.org/1999/02/22-rdf-syntax-ns#"
   xmlns:svg="http://www.w3.org/2000/svg"
   xmlns="http://www.w3.org/2000/svg"
   xmlns:sodipodi="http://sodipodi.sourceforge.net/DTD/sodipodi-0.dtd"
   xmlns:inkscape="http://www.inkscape.org/namespaces/inkscape"
   width="58.632706mm"
   height="67.46875mm"
   viewBox="0 0 58.632706 67.46875"
   version="1.1"
   id="svg8"
   inkscape:version="0.92.3 (2405546, 2018-03-11)"
   sodipodi:docname="tmon.svg">
  <defs
     id="defs2" />
  <sodipodi:namedview
     id="base"
     pagecolor="#ffffff"
     bordercolor="#666666"
     borderopacity="1.0"
     inkscape:pageopacity="0.0"
     inkscape:pageshadow="2"
     inkscape:zoom="1.6693267"
     inkscape:cx="30.336083"
     inkscape:cy="164.83415"
     inkscape:document-units="mm"
     inkscape:current-layer="layer1"
     showgrid="false"
     fit-margin-top="0"
     fit-margin-left="0"
     fit-margin-right="0"
     fit-margin-bottom="0"
     inkscape:window-width="2560"
     inkscape:window-height="1379"
     inkscape:window-x="0"
     inkscape:window-y="28"
     inkscape:window-maximized="0" />
  <metadata
     id="metadata5">
    <rdf:RDF>
      <cc:Work
         rdf:about="">
        <dc:format>image/svg+xml</dc:format>
        <dc:type
           rdf:resource="http://purl.org/dc/dcmitype/StillImage" />
        <dc:title />
      </cc:Work>
    </rdf:RDF>
  </metadata>
  <g
     inkscape:label="Layer 1"
     inkscape:groupmode="layer"
     id="layer1"
     transform="translate(-75.890991,-108.96089)">
    <path
       sodipodi:type="star"
       style="opacity:1;fill:#e7f7f9;fill-opacity:1;stroke:#398a96;stroke-width:1.51544833;stroke-linecap:round;stroke-linejoin:round;stroke-miterlimit:4;stroke-dasharray:none;stroke-dashoffset:0;stroke-opacity:1"
       id="path919"
       sodipodi:sides="6"
       sodipodi:cx="105.20734"
       sodipodi:cy="142.69527"
       sodipodi:r1="32.976662"
       sodipodi:r2="26.678679"
       sodipodi:arg1="-1.5707963"
       sodipodi:arg2="-1.0471975"
       inkscape:flatsided="true"
       inkscape:rounded="0"
       inkscape:randomized="0"
       d="m 105.20734,109.71861 28.55862,16.48833 0,32.97666 -28.55862,16.48833 -28.558631,-16.48833 10e-7,-32.97666 z"
       inkscape:transform-center-x="1.490942e-06"
       inkscape:transform-center-y="-2.7489132" />
    <path
       style="opacity:0.37600002;fill:#e2e1ff;fill-opacity:1;stroke:#597090;stroke-width:0.30308965;stroke-linecap:butt;stroke-linejoin:miter;stroke-miterlimit:4;stroke-dasharray:none;stroke-opacity:1"
       d="m 111.33735,129.68548 c 0.0633,-0.0989 0.15055,-0.20123 0.14992,-0.31861 -8.7e-4,-0.21514 -0.10195,-0.46196 -0.28112,-0.58099 -0.099,-0.0658 -0.242,-0.052 -0.3561,-0.0188 -0.30954,0.0903 -0.48494,0.44983 -0.78715,0.56226 -0.3822,0.14219 -0.83027,0.23816 -1.21821,0.11248 -0.50538,-0.16378 -0.90879,-0.60483 -1.19946,-1.04954 -0.20431,-0.31256 -0.25444,-0.70417 -0.33735,-1.06827 -0.0686,-0.3015 -0.21471,-0.62061 -0.13119,-0.91833 0.0743,-0.26495 0.25814,-0.56919 0.52477,-0.63722 0.66544,-0.16979 1.2285,0.83896 1.91164,0.76842 0.20165,-0.0209 0.35729,-0.19961 0.50603,-0.33736 0.21548,-0.19955 0.27471,-0.57513 0.54351,-0.69345 0.37276,-0.16406 0.82652,-0.0179 1.2182,0.0937 0.36545,0.10413 0.69074,0.3219 1.01205,0.52478 0.46378,0.29284 1.01385,0.53283 1.31192,0.99331 0.4389,0.67805 0.34293,1.579 0.54349,2.36143 0.1596,0.62261 0.26018,1.26968 0.52478,1.85542 0.0948,0.21003 0.40832,0.35296 0.37482,0.581 -0.0406,0.2762 -0.3935,0.40732 -0.63721,0.54349 -0.19488,0.10894 -0.41425,0.19481 -0.63722,0.20618 -0.44665,0.0228 -0.9761,-0.57651 -1.31191,-0.28113 -0.3954,0.34778 -0.31461,1.29403 0.13119,1.57429 0.38503,0.24206 0.84136,-0.34841 1.27444,-0.48728 1.10669,-0.35488 2.29473,-0.44842 3.37348,-0.88086 1.55222,-0.62223 3.10821,-1.35707 4.38555,-2.43642 0.18332,-0.15491 0.3152,-0.36352 0.4498,-0.56224 0.26984,-0.39842 0.38375,-0.904 0.71217,-1.25569 0.31695,-0.33937 0.92767,-0.36749 1.16199,-0.7684 0.13274,-0.22712 -0.0349,-0.54041 0.0562,-0.78716 0.062,-0.1676 0.14933,-0.37385 0.31861,-0.43105 0.19105,-0.0646 0.46417,0.004 0.581,0.16867 0.13769,0.19377 0.0274,0.48346 -0.0375,0.71218 -0.0853,0.30127 -0.48034,0.51303 -0.4498,0.82464 0.0143,0.14568 0.14856,0.27526 0.28112,0.33734 0.26023,0.12189 0.60988,0.13771 0.86212,0 0.0913,-0.0498 0.0922,-0.19191 0.16867,-0.26237 0.23427,-0.21594 0.53684,-0.36292 0.84338,-0.4498 0.28906,-0.0819 0.74962,-0.31657 0.89959,-0.0562 0.17989,0.31229 -0.75488,0.57431 -0.59973,0.89961 0.11614,0.2435 0.5627,-0.0418 0.80587,0.0749 0.22701,0.10905 0.45393,0.30184 0.52479,0.5435 0.0448,0.15284 0.0208,0.35775 -0.0937,0.46854 -0.10917,0.10574 -0.31433,0.14394 -0.4498,0.0749 -0.11202,-0.0571 -0.0598,-0.27451 -0.16866,-0.33735 -0.3578,-0.20644 -0.87024,-0.11516 -1.23696,0.0749 -0.28409,0.1473 -0.32937,0.57846 -0.59973,0.74966 -0.32004,0.20269 -0.72945,0.30599 -1.10576,0.26239 -0.36078,-0.0418 -0.62109,-0.40383 -0.97455,-0.48728 -0.20065,-0.0474 -0.42693,-0.0762 -0.61848,0 -0.43935,0.17481 -0.70171,0.63501 -1.03078,0.97456 -0.56974,0.5879 -1.16004,1.16671 -1.63052,1.83668 -0.32293,0.45984 -0.50476,1.00621 -0.8059,1.48059 -0.12455,0.19622 -0.34174,0.34082 -0.41231,0.56225 -0.12144,0.38099 0.28215,0.89859 0.0188,1.19947 -0.0705,0.0804 -0.21267,0.0521 -0.31861,0.0375 -0.26092,-0.0357 -0.46985,-0.33445 -0.73092,-0.29986 -0.26508,0.035 -0.38037,0.41294 -0.63722,0.48728 -0.40366,0.11686 -0.83915,-0.16815 -1.25568,-0.11249 -0.40948,0.0548 -0.8864,0.12329 -1.16199,0.43106 -0.0859,0.0959 -0.11569,0.24793 -0.0937,0.37483 0.0422,0.24413 0.32317,0.3873 0.41232,0.61847 0.15227,0.39486 0.22505,0.83417 0.1874,1.25569 -0.19586,2.19402 -1.55286,4.13063 -2.11779,6.2597 -0.19261,0.72592 -0.47954,1.46204 -0.43106,2.21151 0.0523,0.80829 0.59085,1.51495 0.76841,2.30522 0.12554,0.55871 0.30006,1.14061 0.20616,1.7055 -0.033,0.19845 -0.1402,0.38369 -0.26239,0.5435 -0.57289,0.74934 -1.61275,1.07098 -2.13654,1.85543 -0.0987,0.14786 -0.278,0.3658 -0.16868,0.50602 0.61246,0.7856 2.04591,-0.57118 2.97992,-0.2249 0.39764,0.14741 0.717,0.51685 0.89961,0.8996 0.10276,0.21545 0.23012,0.53077 0.0749,0.71218 -0.2399,0.28047 -0.73747,0.0799 -1.10576,0.0562 -1.50165,-0.0968 -3.72042,0.51468 -4.44176,-0.8059 -0.40822,-0.74731 0.81561,-1.52485 0.97456,-2.36144 0.0734,-0.3867 0.12542,-0.81445 -0.0188,-1.18071 -0.12637,-0.32104 -0.37817,-0.62826 -0.69343,-0.76842 -0.48523,-0.2157 -1.08043,-0.13859 -1.59304,0 -0.41891,0.1133 -0.82403,0.34286 -1.12449,0.65596 -0.49922,0.52021 -0.82941,1.21416 -1.01206,1.91165 -0.12506,0.47758 0.248,1.07781 -0.0375,1.48059 -0.61053,0.8614 -1.93326,0.88329 -2.96117,1.12449 -0.74558,0.17496 -1.69073,0.70616 -2.28649,0.2249 -0.1712,-0.13829 -0.12793,-0.44234 -0.0749,-0.65595 0.0693,-0.27918 0.27583,-0.51719 0.48728,-0.71219 0.2962,-0.27316 0.66394,-0.48278 1.04954,-0.59973 0.85698,-0.25992 1.91792,0.28284 2.68006,-0.18742 0.16685,-0.10298 0.27619,-0.31138 0.29986,-0.50601 0.0913,-0.75142 -0.52177,-1.42909 -0.65596,-2.17403 -0.0699,-0.38812 -0.16148,-0.79597 -0.0749,-1.18074 0.10183,-0.45287 0.3954,-0.84743 0.67469,-1.21819 0.20732,-0.27522 0.59907,-0.41258 0.73094,-0.73092 0.0288,-0.0694 0.0343,-0.1583 0,-0.22491 -0.13359,-0.25876 -0.50935,-0.29706 -0.71219,-0.50601 -0.78444,-0.80812 -1.29405,-1.84592 -1.87416,-2.81125 -0.753,-1.25301 -1.35681,-2.59051 -2.08033,-3.86077 -0.62411,-1.09574 -1.10519,-2.3053 -1.94912,-3.2423 -0.382133,-0.42428 -0.897216,-0.7079 -1.368146,-1.03079 -0.497539,-0.34116 -1.032899,-0.62416 -1.536818,-0.95583 -0.146206,-0.0962 -0.362057,-0.139 -0.43105,-0.29987 -0.03242,-0.0755 -0.02546,-0.19078 0.03746,-0.24363 0.234405,-0.19699 0.616824,-0.0345 0.918344,0.0188 0.552533,0.0975 1.102254,0.2716 1.593034,0.54351 1.021576,0.566 1.887376,1.39005 2.717536,2.21151 0.51399,0.5086 0.9511,1.09099 1.38689,1.66801 1.1268,1.492 1.97759,3.18687 3.16733,4.62918 0.46944,0.5691 0.90181,1.23245 1.55555,1.5743 0.25849,0.13516 0.58224,0.23207 0.86212,0.14992 0.3012,-0.0884 0.49443,-0.39443 0.69343,-0.6372 0.12974,-0.15827 0.39891,-0.33655 0.31862,-0.52477 -0.0451,-0.10597 -0.22739,-0.10929 -0.33735,-0.0749 -0.21944,0.0685 -0.2522,0.42834 -0.46854,0.50603 -0.21953,0.0788 -0.48312,0.007 -0.69345,-0.0937 -0.31079,-0.14902 -0.56471,-0.42135 -0.74966,-0.7122 -0.1272,-0.20004 -0.0535,-0.5109 -0.2249,-0.6747 -0.31456,-0.30056 -0.96486,-0.0324 -1.2557,-0.35608 -0.14828,-0.16499 -0.26413,-0.49409 -0.11248,-0.65596 0.40806,-0.43544 1.38101,0.63079 1.78044,0.18742 0.14108,-0.15657 -0.22864,-0.43161 -0.13118,-0.61847 0.0816,-0.15638 0.31091,-0.20442 0.48729,-0.20616 0.26912,-0.003 0.48051,0.29988 0.74966,0.29988 0.0673,0 0.16678,-0.0115 0.18741,-0.0749 0.05,-0.15505 -0.1333,-0.31293 -0.26237,-0.41231 -0.80001,-0.61585 -1.89218,-0.74183 -2.88622,-0.91834 -0.28321,-0.0503 -0.67648,0.18228 -0.86211,-0.0375 -0.13003,-0.1539 0.022,-0.40535 0.0749,-0.59972 0.15742,-0.57777 0.32202,-1.195 0.71218,-1.64926 0.78268,-0.91126 2.0851,-1.20279 3.05489,-1.91165 0.60833,-0.44465 1.05003,-1.12534 1.72423,-1.46185 0.30375,-0.1516 0.82776,0.0714 0.99331,-0.22491 0.37665,-0.67439 -0.2045,-1.64551 -0.74967,-2.19276 -0.48523,-0.48709 -1.51025,-0.14546 -1.94913,-0.6747 -0.10882,-0.13126 -0.15559,-0.35578 -0.0749,-0.50603 0.26429,-0.4925 1.07494,-0.37151 1.51807,-0.71218 0.3234,-0.24863 0.56722,-0.59351 0.7871,-0.93713 z"
       id="path826-0-4"
       inkscape:connector-curvature="0"
       sodipodi:nodetypes="ssssssssssssssssssssssssssssssssssssssssssssssssssssssssssssssssssssssssssssssssssssssssssssssssssssssssssssssssssssssssssssssssssssssss" />
    <g
       id="g911"
       transform="translate(-2.4567042,-0.87173367)">
      <text
         id="text946"
         y="139.55084"
         x="84.383812"
         style="font-style:normal;font-weight:normal;font-size:15.43335724px;line-height:1.25;font-family:sans-serif;letter-spacing:0px;word-spacing:0px;fill:#000000;fill-opacity:1;stroke:none;stroke-width:0.38583392"
         xml:space="preserve"><tspan
           style="font-style:normal;font-variant:normal;font-weight:normal;font-stretch:normal;font-size:6.1733427px;font-family:Hermit;-inkscape-font-specification:'Hermit, Normal';font-variant-ligatures:normal;font-variant-caps:normal;font-variant-numeric:normal;font-feature-settings:normal;text-align:start;writing-mode:lr-tb;text-anchor:start;stroke-width:0.38583392"
           y="139.55084"
           x="84.383812"
           id="tspan944"
           sodipodi:role="line"><tspan
   id="tspan968"
   style="fill:#ff8c5e;fill-opacity:1;stroke-width:0.38583392">T</tspan>emp</tspan></text>
      <text
         id="text946-4"
         y="147.42952"
         x="84.383812"
         style="font-style:normal;font-weight:normal;font-size:15.43335724px;line-height:1.25;font-family:sans-serif;letter-spacing:0px;word-spacing:0px;fill:#000000;fill-opacity:1;stroke:none;stroke-width:0.38583392"
         xml:space="preserve"><tspan
           style="font-style:normal;font-variant:normal;font-weight:normal;font-stretch:normal;font-size:6.1733427px;font-family:Hermit;-inkscape-font-specification:'Hermit, Normal';font-variant-ligatures:normal;font-variant-caps:normal;font-variant-numeric:normal;font-feature-settings:normal;text-align:start;writing-mode:lr-tb;text-anchor:start;stroke-width:0.38583392"
           y="147.42952"
           x="84.383812"
           id="tspan944-4"
           sodipodi:role="line"><tspan
   id="tspan970"
   style="fill:#ff8c5e;fill-opacity:1;stroke-width:0.38583392">Mon</tspan>itor</tspan></text>
    </g>
  </g>
</svg>
