<?xml version="1.0" encoding="UTF-8" standalone="no"?>
<!-- Created with Inkscape (http://www.inkscape.org/) -->

<svg
   xmlns:dc="http://purl.org/dc/elements/1.1/"
   xmlns:cc="http://creativecommons.org/ns#"
   xmlns:rdf="http://www.w3.org/1999/02/22-rdf-syntax-ns#"
   xmlns:svg="http://www.w3.org/2000/svg"
   xmlns="http://www.w3.org/2000/svg"
   xmlns:sodipodi="http://sodipodi.sourceforge.net/DTD/sodipodi-0.dtd"
   xmlns:inkscape="http://www.inkscape.org/namespaces/inkscape"
   width="67.895798mm"
   height="67.582603mm"
   viewBox="0 0 67.895798 67.582603"
   version="1.1"
   id="svg8"
   inkscape:version="0.92.3 (2405546, 2018-03-11)"
   sodipodi:docname="tmon.svg"
   inkscape:export-filename="/home/gm/Dev/tmon/data/tmon.png"
   inkscape:export-xdpi="96.000008"
   inkscape:export-ydpi="96.000008">
  <defs
     id="defs2" />
  <sodipodi:namedview
     id="base"
     pagecolor="#ffffff"
     bordercolor="#666666"
     borderopacity="1.0"
     inkscape:pageopacity="0.0"
     inkscape:pageshadow="2"
     inkscape:zoom="3.3386534"
     inkscape:cx="83.097407"
     inkscape:cy="147.19504"
     inkscape:document-units="mm"
     inkscape:current-layer="layer1"
     showgrid="false"
     fit-margin-top="0"
     fit-margin-left="0"
     fit-margin-right="0"
     fit-margin-bottom="0"
     inkscape:window-width="2560"
     inkscape:window-height="1379"
     inkscape:window-x="0"
     inkscape:window-y="28"
     inkscape:window-maximized="0" />
  <metadata
     id="metadata5">
    <rdf:RDF>
      <cc:Work
         rdf:about="">
        <dc:format>image/svg+xml</dc:format>
        <dc:type
           rdf:resource="http://purl.org/dc/dcmitype/StillImage" />
        <dc:title></dc:title>
      </cc:Work>
    </rdf:RDF>
  </metadata>
  <g
     inkscape:label="Layer 1"
     inkscape:groupmode="layer"
     id="layer1"
     transform="translate(-75.506476,-109.06957)">
    <g
       id="g902"
       inkscape:export-xdpi="96.000008"
       inkscape:export-ydpi="96.000008">
      <path
         transform="matrix(1.1434905,0,0,0.99505418,-10.927597,0.79843426)"
         inkscape:transform-center-y="-2.7353186"
         inkscape:transform-center-x="-2.8963296e-06"
         d="m 105.20734,109.71861 28.55862,16.48833 0,32.97666 -28.55862,16.48833 -28.558631,-16.48833 10e-7,-32.97666 z"
         inkscape:randomized="0"
         inkscape:rounded="0"
         inkscape:flatsided="true"
         sodipodi:arg2="-1.0471975"
         sodipodi:arg1="-1.5707963"
         sodipodi:r2="26.678679"
         sodipodi:r1="32.976662"
         sodipodi:cy="142.69527"
         sodipodi:cx="105.20734"
         sodipodi:sides="6"
         id="path919"
         style="opacity:1;fill:#e7f7f9;fill-opacity:1;stroke:#398a96;stroke-width:2.11666656;stroke-linecap:round;stroke-linejoin:round;stroke-miterlimit:4;stroke-dasharray:none;stroke-dashoffset:0;stroke-opacity:1"
         sodipodi:type="star" />
      <path
         sodipodi:nodetypes="ssssssssssssssssssssssssssssssssssssssssssssssssssssssssssssssssssssssssssssssssssssssssssssssssssssssssssssssssssssssssssssssssssssssss"
         inkscape:connector-curvature="0"
         id="path826-0-4"
         d="m 107.56413,128.4732 c 0.0821,-0.12844 0.1955,-0.26132 0.19468,-0.41375 -10e-4,-0.27939 -0.13239,-0.59991 -0.36507,-0.7545 -0.12856,-0.0855 -0.31427,-0.0675 -0.46244,-0.0244 -0.40198,0.11727 -0.62976,0.58416 -1.02221,0.73017 -0.49633,0.18465 -1.07821,0.30927 -1.582,0.14607 -0.6563,-0.21269 -1.18017,-0.78545 -1.55764,-1.36297 -0.26532,-0.40589 -0.33042,-0.91444 -0.43809,-1.38728 -0.0891,-0.39152 -0.27883,-0.80593 -0.17037,-1.19256 0.0965,-0.34407 0.33523,-0.73916 0.68147,-0.82751 0.86416,-0.22049 1.59537,1.0895 2.48251,0.9979 0.26187,-0.0271 0.46399,-0.25923 0.65714,-0.43811 0.27983,-0.25914 0.35675,-0.74687 0.70582,-0.90053 0.48407,-0.21306 1.07333,-0.0233 1.58198,0.12168 0.47459,0.13523 0.89701,0.41803 1.31427,0.68149 0.60228,0.38029 1.31661,0.69195 1.70369,1.28994 0.56996,0.88053 0.44534,2.05053 0.70579,3.0666 0.20726,0.80854 0.33787,1.64884 0.68149,2.40949 0.12311,0.27276 0.53025,0.45837 0.48675,0.75451 -0.0527,0.35868 -0.51101,0.52895 -0.8275,0.70579 -0.25307,0.14147 -0.53795,0.25298 -0.82751,0.26774 -0.58002,0.0296 -1.26758,-0.74866 -1.70367,-0.36507 -0.51348,0.45163 -0.40856,1.68045 0.17036,2.0444 0.50001,0.31434 1.09262,-0.45246 1.65502,-0.63279 1.43717,-0.46086 2.97999,-0.58233 4.38088,-1.14391 2.01574,-0.80803 4.03639,-1.76232 5.69518,-3.16398 0.23806,-0.20117 0.40932,-0.47208 0.58412,-0.73014 0.35042,-0.5174 0.49834,-1.17396 0.92484,-1.63067 0.4116,-0.44072 1.20469,-0.47724 1.50899,-0.99786 0.17238,-0.29495 -0.0453,-0.7018 0.073,-1.02222 0.0806,-0.21766 0.19392,-0.4855 0.41375,-0.55978 0.24811,-0.0839 0.60278,0.005 0.7545,0.21903 0.17881,0.25164 0.0355,0.62784 -0.0487,0.92486 -0.11077,0.39124 -0.62378,0.66624 -0.58412,1.0709 0.0186,0.18918 0.19292,0.35745 0.36507,0.43807 0.33795,0.15829 0.79201,0.17884 1.11958,0 0.11856,-0.0647 0.11972,-0.24921 0.21903,-0.34072 0.30422,-0.28042 0.69715,-0.47129 1.09523,-0.58412 0.37539,-0.10637 0.97347,-0.4111 1.16823,-0.073 0.23361,0.40555 -0.9803,0.74581 -0.77882,1.16825 0.15083,0.31622 0.73073,-0.0543 1.04651,0.0973 0.29481,0.14162 0.58949,0.39198 0.68152,0.70581 0.0582,0.19848 0.027,0.46457 -0.12169,0.60846 -0.14177,0.13731 -0.4082,0.18692 -0.58412,0.0973 -0.14547,-0.0742 -0.0777,-0.35649 -0.21902,-0.4381 -0.46465,-0.26809 -1.13012,-0.14954 -1.60635,0.0973 -0.36892,0.19129 -0.42772,0.7512 -0.77882,0.97353 -0.41562,0.26321 -0.94728,0.39736 -1.43597,0.34075 -0.46851,-0.0543 -0.80655,-0.52443 -1.26557,-0.6328 -0.26057,-0.0616 -0.55442,-0.099 -0.80317,0 -0.57055,0.22702 -0.91126,0.82464 -1.33859,1.26558 -0.73988,0.76347 -1.50646,1.51512 -2.11744,2.38516 -0.41936,0.59717 -0.65549,1.30669 -1.04656,1.92273 -0.16174,0.25482 -0.44379,0.4426 -0.53543,0.73015 -0.1577,0.49477 0.36641,1.16693 0.0244,1.55766 -0.0915,0.10446 -0.27618,0.0676 -0.41375,0.0487 -0.33883,-0.0464 -0.61016,-0.43433 -0.94919,-0.38941 -0.34424,0.0455 -0.49396,0.53626 -0.82751,0.6328 -0.5242,0.15175 -1.08974,-0.21837 -1.63066,-0.14608 -0.53175,0.0712 -1.15109,0.1601 -1.50898,0.55978 -0.11155,0.12454 -0.15024,0.32196 -0.12169,0.48676 0.0549,0.31703 0.41968,0.50296 0.53546,0.80316 0.19774,0.51278 0.29225,1.08327 0.24336,1.63066 -0.25435,2.84921 -2.01658,5.36414 -2.75022,8.129 -0.25012,0.94269 -0.62273,1.89863 -0.55978,2.87191 0.068,1.04966 0.76729,1.96735 0.99788,2.99361 0.16303,0.72556 0.38966,1.48123 0.26772,2.21481 -0.0429,0.25771 -0.18207,0.49827 -0.34075,0.7058 -0.74396,0.97311 -2.09434,1.3908 -2.77456,2.4095 -0.12816,0.19201 -0.36101,0.47504 -0.21905,0.65713 0.79536,1.0202 2.65687,-0.74174 3.8698,-0.29206 0.51638,0.19144 0.93111,0.67119 1.16826,1.16824 0.13343,0.27979 0.29883,0.68927 0.0973,0.92486 -0.31155,0.36422 -0.95771,0.10371 -1.43597,0.073 -1.95008,-0.12571 -4.83142,0.66838 -5.76818,-1.04656 -0.53012,-0.97048 1.05917,-1.9802 1.26559,-3.06663 0.0953,-0.50217 0.16287,-1.05765 -0.0244,-1.53329 -0.16412,-0.41691 -0.4911,-0.81587 -0.9005,-0.99789 -0.63014,-0.28011 -1.40308,-0.17998 -2.06877,0 -0.54401,0.14714 -1.0701,0.44524 -1.46029,0.85185 -0.6483,0.67555 -1.07709,1.57673 -1.31428,2.4825 -0.1624,0.62021 0.32206,1.39968 -0.0486,1.92274 -0.79285,1.11863 -2.510578,1.14706 -3.845446,1.46028 -0.968227,0.22721 -2.19562,0.91704 -2.969288,0.29207 -0.222324,-0.17959 -0.166133,-0.57444 -0.09727,-0.85184 0.08999,-0.36255 0.358199,-0.67163 0.632793,-0.92486 0.384653,-0.35473 0.862208,-0.62695 1.362957,-0.77882 1.112893,-0.33754 2.490655,0.3673 3.480394,-0.24339 0.21667,-0.13374 0.35867,-0.40437 0.38941,-0.65712 0.11856,-0.97581 -0.67759,-1.85585 -0.851854,-2.82325 -0.0908,-0.50402 -0.209704,-1.03366 -0.09731,-1.53333 0.132231,-0.58811 0.513474,-1.10049 0.876154,-1.58197 0.26924,-0.35741 0.77797,-0.53578 0.94922,-0.94919 0.0375,-0.0902 0.0446,-0.20557 0,-0.29207 -0.17348,-0.33604 -0.66145,-0.38577 -0.92487,-0.65711 -1.018683,-1.04946 -1.680474,-2.39716 -2.433818,-3.65076 -0.977863,-1.62719 -1.761985,-3.3641 -2.701564,-5.01368 -0.810484,-1.42296 -1.435226,-2.99372 -2.531172,-4.21053 -0.496247,-0.55098 -1.165146,-0.9193 -1.776706,-1.33861 -0.646115,-0.44303 -1.341347,-0.81055 -1.995747,-1.24127 -0.189866,-0.12492 -0.470175,-0.1805 -0.559771,-0.38941 -0.0421,-0.0981 -0.03307,-0.24775 0.04864,-0.31638 0.304404,-0.25582 0.801022,-0.0448 1.192583,0.0244 0.717532,0.12662 1.431412,0.35271 2.06875,0.70582 1.326642,0.73501 2.450989,1.80515 3.529054,2.87191 0.66748,0.66048 1.235121,1.41679 1.801048,2.16612 1.463288,1.93755 2.568147,4.13854 4.113173,6.01156 0.60962,0.73905 1.17111,1.60049 2.02006,2.04443 0.33568,0.17551 0.75612,0.30136 1.11957,0.19468 0.39115,-0.1148 0.64208,-0.51222 0.9005,-0.82748 0.16849,-0.20553 0.51805,-0.43706 0.41378,-0.68148 -0.0586,-0.13761 -0.2953,-0.14193 -0.43809,-0.0973 -0.28497,0.089 -0.32752,0.55625 -0.60846,0.65714 -0.28509,0.10233 -0.6274,0.01 -0.90053,-0.12167 -0.4036,-0.19353 -0.73335,-0.54719 -0.97353,-0.92489 -0.16519,-0.25977 -0.0695,-0.66347 -0.29205,-0.87618 -0.4085,-0.39031 -1.25299,-0.042 -1.63069,-0.46241 -0.19256,-0.21426 -0.343,-0.64164 -0.14606,-0.85185 0.52991,-0.56546 1.7934,0.81916 2.31211,0.24339 0.18321,-0.20332 -0.29691,-0.56049 -0.17036,-0.80316 0.10595,-0.20308 0.40376,-0.26546 0.63281,-0.26772 0.34949,-0.004 0.624,0.38943 0.97353,0.38943 0.0874,0 0.21658,-0.0149 0.24337,-0.0973 0.065,-0.20136 -0.17311,-0.40638 -0.34072,-0.53544 -1.03891,-0.79975 -2.45723,-0.96335 -3.7481,-1.19257 -0.36779,-0.0653 -0.878492,0.23671 -1.119555,-0.0487 -0.168861,-0.19986 0.02859,-0.52639 0.09731,-0.77881 0.204424,-0.7503 0.418185,-1.55185 0.924845,-2.14176 1.01641,-1.18338 2.70776,-1.56198 3.96715,-2.48252 0.78999,-0.57743 1.36359,-1.46139 2.23913,-1.89838 0.39445,-0.19688 1.07495,0.0927 1.28993,-0.29208 0.48913,-0.87578 -0.26557,-2.1369 -0.97354,-2.84757 -0.63013,-0.63254 -1.96124,-0.1889 -2.53118,-0.87618 -0.14131,-0.17046 -0.20206,-0.46202 -0.0973,-0.65714 0.34321,-0.63957 1.39594,-0.48246 1.9714,-0.92486 0.41997,-0.32287 0.7366,-0.77075 1.02214,-1.21698 z"
         style="opacity:0.2;fill:#e2e1ff;fill-opacity:1;stroke:#597090;stroke-width:0.56461143;stroke-linecap:butt;stroke-linejoin:miter;stroke-miterlimit:4;stroke-dasharray:none;stroke-opacity:1" />
      <g
         transform="matrix(1.0417292,0,0,1.0417292,9.0894586,-2.8442811)"
         id="g911">
        <g
           transform="translate(0.29166486,1.0877289)"
           id="g827">
          <text
             id="text946"
             y="136.69359"
             x="83.855972"
             style="font-style:normal;font-weight:normal;font-size:15.43335724px;line-height:1.25;font-family:sans-serif;letter-spacing:0px;word-spacing:0px;fill:#000000;fill-opacity:1;stroke:none;stroke-width:0.38583392"
             xml:space="preserve"><tspan
               style="font-style:normal;font-variant:normal;font-weight:normal;font-stretch:normal;font-size:9.87777805px;font-family:Hermit;-inkscape-font-specification:'Hermit, Normal';font-variant-ligatures:normal;font-variant-caps:normal;font-variant-numeric:normal;font-feature-settings:normal;text-align:start;writing-mode:lr-tb;text-anchor:start;stroke-width:0.38583392"
               y="136.69359"
               x="83.855972"
               id="tspan944"
               sodipodi:role="line"><tspan
   id="tspan968"
   style="font-style:normal;font-variant:normal;font-weight:normal;font-stretch:normal;font-size:9.87777805px;font-family:Hermit;-inkscape-font-specification:'Hermit, Normal';font-variant-ligatures:normal;font-variant-caps:normal;font-variant-numeric:normal;font-feature-settings:normal;text-align:start;writing-mode:lr-tb;text-anchor:start;fill:#ff8c5e;fill-opacity:1;stroke-width:0.38583392">T</tspan>emp</tspan></text>
          <text
             id="text946-4"
             y="148.27638"
             x="74.711311"
             style="font-style:normal;font-weight:normal;font-size:15.43335724px;line-height:1.25;font-family:sans-serif;letter-spacing:0px;word-spacing:0px;fill:#000000;fill-opacity:1;stroke:none;stroke-width:0.38583392"
             xml:space="preserve"><tspan
               style="font-style:normal;font-variant:normal;font-weight:normal;font-stretch:normal;font-size:9.87777805px;font-family:Hermit;-inkscape-font-specification:'Hermit, Normal';font-variant-ligatures:normal;font-variant-caps:normal;font-variant-numeric:normal;font-feature-settings:normal;text-align:start;writing-mode:lr-tb;text-anchor:start;stroke-width:0.38583392"
               y="148.27638"
               x="74.711311"
               id="tspan944-4"
               sodipodi:role="line"><tspan
   id="tspan970"
   style="font-style:normal;font-variant:normal;font-weight:normal;font-stretch:normal;font-size:9.87777805px;font-family:Hermit;-inkscape-font-specification:'Hermit, Normal';font-variant-ligatures:normal;font-variant-caps:normal;font-variant-numeric:normal;font-feature-settings:normal;text-align:start;writing-mode:lr-tb;text-anchor:start;fill:#ff8c5e;fill-opacity:1;stroke-width:0.38583392">Mon</tspan>itor</tspan></text>
        </g>
      </g>
    </g>
  </g>
</svg>
